<svg width="300" height="300" viewBox="0 0 300 300" fill="none" xmlns="http://www.w3.org/2000/svg">
<rect width="300" height="300" rx="60" fill="#F8F8F8"/>
<path d="M202 41C219.673 41 234 55.3269 234 73V216C234 233.673 219.673 248 202 248H95C77.3269 248 63 233.673 63 216V89.6689C63.0001 83.3637 64.8629 77.1985 68.3545 71.9482L68.4893 71.7461C69.7034 69.9204 71.1021 68.2243 72.6631 66.6846L90.7012 48.8926C92.6452 46.9751 94.8652 45.3588 97.2871 44.0977C101.195 42.0627 105.536 41.0001 109.941 41H202ZM116.774 57C113.448 57 110.174 57.83 107.249 59.4141L106.575 59.7793C104.803 60.7392 103.185 61.961 101.778 63.4043L86.373 79.208C85.4245 80.1812 84.5778 81.2487 83.8457 82.3936L82.1504 85.0439C80.0933 88.2609 79.0001 91.9999 79 95.8184V212C79 223.046 87.9543 232 99 232H198C209.046 232 218 223.046 218 212V77C218 65.9543 209.046 57 198 57H116.774Z" fill="#292929"/>
<path d="M237.44 19.3975L248.009 43.5732L272.534 53.7559L281.544 57.4961L272.501 61.1572L248.401 70.9141L237.406 94.6797L233.775 102.525L230.146 94.6797L219.143 70.9014L195.476 61.1484L186.692 57.5283L195.42 53.7754L219.113 43.5869L230.135 19.3447L233.848 11.1768L237.44 19.3975Z" fill="url(#paint0_linear_2_11)" stroke="#F8F8F8" stroke-width="8"/>
<path d="M188 87H158.682V167.986C158.682 174.735 151.364 183.538 139.25 183.538C129.559 183.538 123.197 177.082 121.227 173.854L97 189.406C98.3458 194.394 112.659 212 141.614 212C176.123 212 188 193.514 188 167.986V87Z" fill="#292929"/>
<path d="M111 41V79C111 87.8366 103.837 95 95 95H63L111 41Z" fill="#292929"/>
<defs>
<linearGradient id="paint0_linear_2_11" x1="255.752" y1="34.05" x2="217.503" y2="71.721" gradientUnits="userSpaceOnUse">
<stop stop-color="#A48CEE"/>
<stop offset="1" stop-color="#959BF4"/>
</linearGradient>
</defs>
</svg>
